<svg width="140" height="140" viewBox="0 0 140 140" fill="none" xmlns="http://www.w3.org/2000/svg">
<path d="M140 81.8786C140 72.984 132.721 65.7572 123.76 65.7572C123.2 65.7572 122.36 65.7572 121.8 65.7572C122.921 62.1438 123.2 58.2524 123.2 54.361C123.48 30.4568 103.88 11 80.0802 11C61.0401 11 44.8001 23.23 39.2001 40.4633C36.1201 39.3514 33.04 38.7956 29.6801 38.7956C13.16 38.7956 0 52.1374 0 68.5367C0 84.9361 13.16 98 29.4001 98H124.88C133.561 97.1661 140 90.2172 140 81.8786Z" fill="#0072C6"/>
<path opacity="0.1" d="M45.2432 98C41.3334 94.1086 38.5405 89.1054 37.1442 83.5463C33.5135 67.7029 43.2882 51.8594 59.2072 48.246C62.5585 47.4121 65.91 47.4121 68.9819 47.6901C70.3784 32.6805 79.5946 19.6166 93 12.9457C88.8109 11.8339 84.6216 11 79.8739 11C60.8829 11 44.6847 23.23 39.0991 40.4633C36.027 39.3514 32.9549 38.7956 29.6036 38.7956C13.1261 38.7956 0 52.1374 0 68.5367C0 84.9361 13.1261 98 29.3243 98H45.2432Z" fill="white"/>
<path d="M71.9767 63.7553L69.2791 58.9681C68.2558 57.1489 66.3023 56 64.2558 56H22.7674C19.6047 56 17 58.6809 17 61.9362V64.7128V65H73C72.5349 64.7128 72.2558 64.234 71.9767 63.7553Z" fill="#9DD1F0"/>
<path fill-rule="evenodd" clip-rule="evenodd" d="M17 68H107.334C109.496 68.9408 111 71.0106 111 73.3627V124.167C111 127.366 108.368 130 105.172 130H22.828C19.632 130 17 127.366 17 124.167V72.3278V68Z" fill="#9DD1F0"/>
<g filter="url(#filter0_d_11_78)">
<path d="M91.5 30L70 52H83.4375V85H99.5625V52H113L91.5 30Z" fill="white"/>
<path d="M91.5 30L70 52H83.4375V85H99.5625V52H113L91.5 30Z" stroke="#73B7E7" stroke-width="2" stroke-linejoin="round"/>
</g>
<defs>
<filter id="filter0_d_11_78" x="67" y="28" width="49" height="61" filterUnits="userSpaceOnUse" color-interpolation-filters="sRGB">
<feFlood flood-opacity="0" result="BackgroundImageFix"/>
<feColorMatrix in="SourceAlpha" type="matrix" values="0 0 0 0 0 0 0 0 0 0 0 0 0 0 0 0 0 0 127 0" result="hardAlpha"/>
<feOffset dy="1"/>
<feGaussianBlur stdDeviation="1"/>
<feComposite in2="hardAlpha" operator="out"/>
<feColorMatrix type="matrix" values="0 0 0 0 0.00487357 0 0 0 0 0.338788 0 0 0 0 0.584831 0 0 0 1 0"/>
<feBlend mode="normal" in2="BackgroundImageFix" result="effect1_dropShadow_11_78"/>
<feBlend mode="normal" in="SourceGraphic" in2="effect1_dropShadow_11_78" result="shape"/>
</filter>
</defs>
</svg>
