<svg width="100" height="100" viewBox="0 0 100 100" fill="none" xmlns="http://www.w3.org/2000/svg">
<path d="M100 58.4847C100 52.1314 94.8005 46.9695 88.4003 46.9695C88.0002 46.9695 87.4002 46.9695 87 46.9695C87.8004 44.3885 88.0002 41.6089 88.0002 38.8293C88.1999 21.7549 74.1998 7.85718 57.2001 7.85718C43.6001 7.85718 32.0001 16.5929 28.0001 28.9024C25.8001 28.1082 23.6 27.7112 21.2001 27.7112C9.40001 27.7112 0 37.2411 0 48.9548C0 60.6687 9.40001 70 21 70H89.2C95.4004 69.4044 100 64.4409 100 58.4847Z" fill="#0072C6"/>
<path opacity="0.1" d="M32.3166 70C29.5239 67.2205 27.5289 63.6467 26.5315 59.676C23.9382 48.3592 30.9202 37.0425 42.2909 34.4615C44.6847 33.8658 47.0785 33.8658 49.2728 34.0644C50.2703 23.3433 56.8533 14.0119 66.4286 9.24696C63.4363 8.45279 60.444 7.85718 57.0528 7.85718C43.4878 7.85718 31.9176 16.5929 27.9279 28.9024C25.7336 28.1082 23.5392 27.7112 21.1454 27.7112C9.37579 27.7112 0 37.2411 0 48.9548C0 60.6687 9.37579 70 20.9459 70H32.3166Z" fill="white"/>
<path fill-rule="evenodd" clip-rule="evenodd" d="M52.107 40.7796L54.1692 45.2629C54.3826 45.7112 54.5959 46.1596 54.9515 46.4286H12.1431V46.1596V43.5593C12.1431 40.5106 14.1342 38 16.5519 38H48.2671C49.8315 38 51.3248 39.076 52.107 40.7796ZM81.1976 48.5715H12.1431V51.6628V88.6908C12.1431 90.9756 14.1551 92.8572 16.5982 92.8572H79.5449C81.988 92.8572 84 90.9756 84 88.6908V52.402C84 50.722 82.8503 49.2435 81.1976 48.5715Z" fill="#9DD1F0"/>
<path d="M67 20L54 36.8H62.125V62H71.875V36.8H80L67 20Z" fill="white"/>
</svg>
