<svg width="140" height="140" viewBox="0 0 140 140" fill="none" xmlns="http://www.w3.org/2000/svg">
<path d="M137.185 81.4345C137.185 72.8466 130.208 65.869 121.62 65.869C121.083 65.869 120.278 65.869 119.741 65.869C120.815 62.3802 121.083 58.623 121.083 54.8658C121.351 31.7859 102.565 13 79.754 13C61.5048 13 45.9393 24.8083 40.5719 41.4473C37.6198 40.3738 34.6677 39.8371 31.4473 39.8371C15.6134 39.8371 3 52.7189 3 68.5527C3 84.3866 15.6134 97 31.1789 97H122.693C131.013 96.1949 137.185 89.4856 137.185 81.4345Z" fill="#0072C6"/>
<path opacity="0.1" d="M46.476 97C42.7189 93.2428 40.0351 88.4121 38.6933 83.0447C35.2045 67.7476 44.5974 52.4505 59.8946 48.9617C63.115 48.1565 66.3355 48.1565 69.2875 48.4249C70.6294 33.9329 79.4856 21.3195 92.3674 14.8786C88.3419 13.8051 84.3163 13 79.754 13C61.5048 13 45.9393 24.8083 40.5719 41.4473C37.6198 40.3738 34.6677 39.8371 31.4473 39.8371C15.6134 39.8371 3 52.7189 3 68.5527C3 84.3866 15.6134 97 31.1789 97H46.476V97Z" fill="white"/>
<path d="M72.19 64.29L69.58 59.79C68.59 58.08 66.7 57 64.72 57H24.58C21.52 57 19 59.52 19 62.58V65.19V65.46H73.18C72.73 65.19 72.46 64.74 72.19 64.29Z" fill="#59B4D9"/>
<path fill-rule="evenodd" clip-rule="evenodd" d="M19 68.34H105.49C107.56 69.24 109 71.22 109 73.47V122.07C109 125.13 106.48 127.65 103.42 127.65H24.58C21.52 127.65 19 125.13 19 122.07V72.48V68.34Z" fill="#59B4D9"/>
<path d="M89 43L73 59H83V83H95V59H105L89 43Z" fill="white"/>
</svg>
