<svg width="100" height="86" viewBox="0 0 100 86" fill="none" xmlns="http://www.w3.org/2000/svg">
<g clip-path="url(#clip0_1_27)">
<path d="M100 51.4847C100 45.1314 94.8005 39.9695 88.4003 39.9695C88.0002 39.9695 87.4002 39.9695 87 39.9695C87.8004 37.3885 88.0002 34.6089 88.0002 31.8293C88.1999 14.7549 74.1998 0.857178 57.2001 0.857178C43.6001 0.857178 32.0001 9.5929 28.0001 21.9024C25.8001 21.1082 23.6 20.7112 21.2001 20.7112C9.40001 20.7112 0 30.2411 0 41.9548C0 53.6687 9.40001 63 21 63H89.2C95.4004 62.4044 100 57.4409 100 51.4847Z" fill="#0072C6"/>
<path opacity="0.1" d="M32.3166 63C29.5239 60.2205 27.5289 56.6467 26.5315 52.676C23.9382 41.3592 30.9202 30.0425 42.2909 27.4615C44.6847 26.8658 47.0785 26.8658 49.2728 27.0644C50.2703 16.3433 56.8533 7.0119 66.4286 2.24696C63.4363 1.45279 60.444 0.857178 57.0528 0.857178C43.4878 0.857178 31.9176 9.5929 27.9279 21.9024C25.7336 21.1082 23.5392 20.7112 21.1454 20.7112C9.37579 20.7112 0 30.2411 0 41.9548C0 53.6687 9.37579 63 20.9459 63H32.3166Z" fill="white"/>
<path fill-rule="evenodd" clip-rule="evenodd" d="M52.107 33.7796L54.1692 38.2629C54.3826 38.7112 54.5959 39.1596 54.9515 39.4286H12.1431V39.1596V36.5593C12.1431 33.5106 14.1342 31 16.5519 31H48.2671C49.8315 31 51.3248 32.076 52.107 33.7796ZM81.1976 41.5715H12.1431V44.6628V81.6908C12.1431 83.9756 14.1551 85.8572 16.5982 85.8572H79.5449C81.988 85.8572 84 83.9756 84 81.6908V45.402C84 43.722 82.8503 42.2435 81.1976 41.5715Z" fill="#9DD1F0"/>
<path d="M67 13L54 29.8H62.125V55H71.875V29.8H80L67 13Z" fill="white"/>
</g>
<defs>
<clipPath id="clip0_1_27">
<rect width="100" height="86" fill="white"/>
</clipPath>
</defs>
</svg>
